<svg id="Calque_1" data-name="Calque 1" xmlns="http://www.w3.org/2000/svg" viewBox="0 0 338.77 84.42"><defs><style>.cls-1{font-size:14.47px;fill:#f5a01c;font-family:Oswald-ExtraLight, Oswald;font-weight:200;}.cls-2{fill:#e3e4e3;}</style></defs><text class="cls-1" transform="translate(195.98 79.73)">ESCAPE GAME</text><path class="cls-2" d="M162.9,72c.25-.76,1.39-1.16,3-1.19l-9.85-15.06a5.21,5.21,0,0,1-.59-4.49l5.84-17.59a5.21,5.21,0,0,0-6.46-6.62l-17.45,5.3a5.37,5.37,0,0,1-1.37.22l-19.1.55h-.3l-19.1-.55a5.23,5.23,0,0,1-1.37-.22l-17.46-5.3a5.21,5.21,0,0,0-6.46,6.62L78.11,51.3a5.21,5.21,0,0,1-.58,4.49L68,70.34c2.38-.57,4.18-.46,4.64.46.65,1.31-1.59,3.79-5.18,5.93a5.06,5.06,0,0,0,2,1.84l15.9,8.3,8-7.1A8.43,8.43,0,1,1,96,82.25l-7.23,6.4,21.58,11.26a1.9,1.9,0,0,1-.11-.63c0-1.89,2.94-3.42,6.56-3.42s6.55,1.53,6.55,3.42a1.9,1.9,0,0,1-.11.63l21.58-11.26-7.22-6.4a8.41,8.41,0,1,1,2.6-2.48l8,7.1,15.9-8.3A5.18,5.18,0,0,0,166.51,76C164,74.65,162.54,73.12,162.9,72Z" transform="translate(-67.47 -26.86)"/><circle class="cls-2" cx="32.93" cy="48.19" r="4.73"/><circle class="cls-2" cx="133.22" cy="75.05" r="4.73" transform="translate(-77.77 -4.55) rotate(-9.22)"/><path class="cls-2" d="M226,39.94h-9.16l-5.79,27.68-5.41-27.68h-9.48l-.76,43.87H202l.6-29.95,5.85,30H214l5.57-29.73.71,29.73h6.5Z" transform="translate(-67.47 -26.86)"/><path class="cls-2" d="M247.56,39.94l-4.39,15.43-4.7-15.43h-8.4l8.56,26.49V83.81h8.61V66.43l8.44-26.49Z" transform="translate(-67.47 -26.86)"/><path class="cls-2" d="M279.76,66A25.18,25.18,0,0,0,275,60.52l-4.44-3.9a18.43,18.43,0,0,1-2.9-3.11,6.48,6.48,0,0,1-1.05-3.82,4.65,4.65,0,0,1,.75-2.57A2.59,2.59,0,0,1,269.71,46a2.68,2.68,0,0,1,2.19.87,4.81,4.81,0,0,1,1,2.38,34.57,34.57,0,0,1,.35,3.52l7.64-1.13a28.32,28.32,0,0,0-.57-4.25,12.08,12.08,0,0,0-1.62-4,8.43,8.43,0,0,0-3.28-2.9A11.91,11.91,0,0,0,270,39.4q-5.52,0-8.69,2.9t-3.17,8.31A12.39,12.39,0,0,0,259.66,57a18.51,18.51,0,0,0,4,4.66l4.55,4a22.56,22.56,0,0,1,3.49,3.77A7.79,7.79,0,0,1,273,74a4.89,4.89,0,0,1-.63,2.5A2.47,2.47,0,0,1,270,77.58a3.33,3.33,0,0,1-2.36-.89A5.56,5.56,0,0,1,266.27,74a22.13,22.13,0,0,1-.56-4.52l-7.7,1.3a20.88,20.88,0,0,0,1.6,7.66,9.56,9.56,0,0,0,4.09,4.5,13.93,13.93,0,0,0,6.77,1.48A12,12,0,0,0,276.4,83a10,10,0,0,0,3.92-3.9,11.13,11.13,0,0,0,1.42-5.58A13.68,13.68,0,0,0,279.76,66Z" transform="translate(-67.47 -26.86)"/><path class="cls-2" d="M283.79,39.94V46.6h6.77V83.81h9V46.6h6.66V39.94Z" transform="translate(-67.47 -26.86)"/><path class="cls-2" d="M319.1,77.74V64H327V57.76H319.1V46.12h10.18V39.94H310.16V83.81h19.23V77.74Z" transform="translate(-67.47 -26.86)"/><path class="cls-2" d="M357.74,44.49a9,9,0,0,0-4.87-3.55,25.72,25.72,0,0,0-7.61-1H333.89V83.81h8.93V63.93H346l5,19.88h5.21c-3.37-4.45-5-10.06-6.2-15.56.79,2.22,3.1,3.6,5.42,4a12.72,12.72,0,0,0,1.5.16l-2.83-10A7.91,7.91,0,0,0,357.36,60,9.15,9.15,0,0,0,359,56.33a22.86,22.86,0,0,0,.46-4.8A12.53,12.53,0,0,0,357.74,44.49Zm-7.15,11.29a3.88,3.88,0,0,1-1.76,2.14,7,7,0,0,1-3.41.71h-2.6V46h3c2,0,3.4.53,4.15,1.6a8.08,8.08,0,0,1,1.1,4.63A10.64,10.64,0,0,1,350.59,55.78Z" transform="translate(-67.47 -26.86)"/><path class="cls-2" d="M365.4,39.94V71.88a64.36,64.36,0,0,1,8.89.15V39.94Z" transform="translate(-67.47 -26.86)"/><path class="cls-2" d="M405,46A9.56,9.56,0,0,0,401,41.11a18.25,18.25,0,0,0-15.36,0,9.35,9.35,0,0,0-4,4.87,21.73,21.73,0,0,0-1.22,7.69V70a27.62,27.62,0,0,0,.16,3.09,9.08,9.08,0,0,1,4.26,2.65,8.72,8.72,0,0,1,.3-6.85,17.86,17.86,0,0,0,5.37,9.92A30.94,30.94,0,0,0,397.69,84,10.94,10.94,0,0,0,401,82.67a9.66,9.66,0,0,0,4.06-5A21.9,21.9,0,0,0,406.24,70V53.64A21.44,21.44,0,0,0,405,46Zm-7.88,26.24a15,15,0,0,1-.27,2.84,3.92,3.92,0,0,1-1.09,2.11,3.52,3.52,0,0,1-2.54.79,3.43,3.43,0,0,1-2.49-.79,3.76,3.76,0,0,1-1.06-2.11,15.91,15.91,0,0,1-.24-2.84V51.48a13.24,13.24,0,0,1,.27-2.82,3.93,3.93,0,0,1,1.08-2.08,3.39,3.39,0,0,1,2.44-.79,3.56,3.56,0,0,1,2.54.79,3.94,3.94,0,0,1,1.09,2.08,14.67,14.67,0,0,1,.27,2.82Z" transform="translate(-67.47 -26.86)"/></svg>