<svg id="Calque_1" data-name="Calque 1" xmlns="http://www.w3.org/2000/svg" viewBox="0 0 391 97.44"><defs><style>.cls-1{font-size:16.7px;fill:#f5a01c;font-family:Oswald-ExtraLight, Oswald;font-weight:200;}.cls-2{fill:#18223b;}</style></defs><text class="cls-1" transform="translate(226.19 92.02)">ESCAPE GAME</text><path class="cls-2" d="M144,72.71c.29-.89,1.6-1.34,3.5-1.37L136.13,54a6,6,0,0,1-.67-5.18l6.74-20.3a6,6,0,0,0-7.46-7.65l-20.15,6.12a5.61,5.61,0,0,1-1.57.26l-22,.63h-.34l-22-.63A5.62,5.62,0,0,1,67,26.94L46.85,20.82a6,6,0,0,0-7.45,7.65l6.73,20.3A6,6,0,0,1,45.46,54l-11,16.79c2.74-.66,4.82-.52,5.35.54.75,1.5-1.83,4.37-6,6.85a6,6,0,0,0,2.3,2.11L54.5,89.82l9.29-8.19a9.73,9.73,0,1,1,3,2.86l-8.34,7.39,24.91,13a2.29,2.29,0,0,1-.13-.73c0-2.18,3.39-4,7.57-4s7.56,1.77,7.56,4a2,2,0,0,1-.13.73l24.91-13-8.34-7.39a9.73,9.73,0,1,1,3-2.86l9.29,8.19,18.35-9.58a5.92,5.92,0,0,0,2.72-2.92C145.29,75.72,143.58,74,144,72.71Z" transform="translate(-33.85 -20.56)"/><circle class="cls-2" cx="38" cy="55.61" r="5.46"/><circle class="cls-2" cx="109.74" cy="76.18" r="5.46" transform="translate(-44.63 -2) rotate(-9.22)"/><path class="cls-2" d="M216.83,35.66H206.27L199.58,67.6l-6.25-31.94H182.39l-.87,50.63h7.56l.69-34.56,6.75,34.56H203L209.39,52l.82,34.31h7.5Z" transform="translate(-33.85 -20.56)"/><path class="cls-2" d="M241.71,35.66l-5.06,17.81-5.44-17.81h-9.69l9.88,30.57V86.29h9.94V66.23l9.74-30.57Z" transform="translate(-33.85 -20.56)"/><path class="cls-2" d="M278.87,65.7a29,29,0,0,0-5.47-6.28l-5.12-4.51a21.61,21.61,0,0,1-3.35-3.59,7.46,7.46,0,0,1-1.22-4.41,5.4,5.4,0,0,1,.87-3,3,3,0,0,1,2.69-1.35,3.1,3.1,0,0,1,2.53,1,5.64,5.64,0,0,1,1.13,2.75,40.46,40.46,0,0,1,.41,4.06l8.81-1.31a30.81,30.81,0,0,0-.66-4.9,13.78,13.78,0,0,0-1.87-4.57,9.62,9.62,0,0,0-3.78-3.34A13.75,13.75,0,0,0,267.58,35c-4.24,0-7.59,1.11-10,3.34S253.9,43.81,253.9,48a14.2,14.2,0,0,0,1.78,7.38,21.26,21.26,0,0,0,4.6,5.38l5.25,4.56a26,26,0,0,1,4,4.34A9,9,0,0,1,271.09,75a5.62,5.62,0,0,1-.73,2.89,2.86,2.86,0,0,1-2.71,1.24,3.79,3.79,0,0,1-2.72-1,6.31,6.31,0,0,1-1.62-3.13,25.09,25.09,0,0,1-.66-5.22l-8.88,1.51a24.06,24.06,0,0,0,1.85,8.84,10.92,10.92,0,0,0,4.72,5.19A16.11,16.11,0,0,0,268.15,87,13.79,13.79,0,0,0,275,85.35a11.53,11.53,0,0,0,4.53-4.5,12.77,12.77,0,0,0,1.63-6.44A15.73,15.73,0,0,0,278.87,65.7Z" transform="translate(-33.85 -20.56)"/><path class="cls-2" d="M283.53,35.66v7.69h7.8V86.29h10.38V43.35h7.69V35.66Z" transform="translate(-33.85 -20.56)"/><path class="cls-2" d="M324.28,79.29V63.41h9.06V56.22h-9.06V42.79H336V35.66H314V86.29h22.19v-7Z" transform="translate(-33.85 -20.56)"/><path class="cls-2" d="M368.87,40.92a10.2,10.2,0,0,0-5.62-4.1,29.37,29.37,0,0,0-8.78-1.16H341.34V86.29h10.31V63.35h3.63l5.81,22.94h6c-3.89-5.13-5.75-11.61-7.16-18,.92,2.56,3.58,4.16,6.25,4.64a12.86,12.86,0,0,0,1.74.19L364.66,61.6a9.16,9.16,0,0,0,3.77-2.84,10.7,10.7,0,0,0,1.88-4.19,26.08,26.08,0,0,0,.53-5.53C370.84,45.58,370.19,42.87,368.87,40.92Zm-8.25,13a4.44,4.44,0,0,1-2,2.47,7.94,7.94,0,0,1-3.94.82h-3V42.66h3.5q3.5,0,4.79,1.85a9.36,9.36,0,0,1,1.27,5.34A12.11,12.11,0,0,1,360.62,53.94Z" transform="translate(-33.85 -20.56)"/><path class="cls-2" d="M377.71,35.66V72.52A73.2,73.2,0,0,1,388,72.7v-37Z" transform="translate(-33.85 -20.56)"/><path class="cls-2" d="M423.44,42.63A10.92,10.92,0,0,0,418.75,37c-2.19-1.32-5.16-2-8.91-2s-6.65.64-8.81,1.94a10.74,10.74,0,0,0-4.65,5.62A24.9,24.9,0,0,0,395,51.47V70.35a33.7,33.7,0,0,0,.18,3.57A10.38,10.38,0,0,1,400.07,77a10.07,10.07,0,0,1,.35-7.91,20.56,20.56,0,0,0,6.2,11.45A35.42,35.42,0,0,0,415,86.45,12.57,12.57,0,0,0,418.75,85a11.11,11.11,0,0,0,4.69-5.72,25.41,25.41,0,0,0,1.4-8.91V51.47A24.88,24.88,0,0,0,423.44,42.63Zm-9.1,30.29A16.31,16.31,0,0,1,414,76.2a4.5,4.5,0,0,1-1.25,2.43,4.06,4.06,0,0,1-2.94.91,4,4,0,0,1-2.87-.91,4.34,4.34,0,0,1-1.22-2.43,18,18,0,0,1-.28-3.28V49a16,16,0,0,1,.31-3.26,4.51,4.51,0,0,1,1.25-2.4,3.92,3.92,0,0,1,2.81-.91,4.11,4.11,0,0,1,2.94.91,4.51,4.51,0,0,1,1.25,2.4,16,16,0,0,1,.31,3.26Z" transform="translate(-33.85 -20.56)"/></svg>