<svg id="Calque_1" data-name="Calque 1" xmlns="http://www.w3.org/2000/svg" xmlns:xlink="http://www.w3.org/1999/xlink" viewBox="0 0 110.36 147.26"><defs><style>.cls-1{fill:none;}.cls-2{clip-path:url(#clip-path);}.cls-3{fill:#0f1a2e;}</style><clipPath id="clip-path" transform="translate(-90.84 -28.11)"><rect class="cls-1" x="101.65" y="29.37" width="101.09" height="138.57" transform="translate(-19.35 39.75) rotate(-14)"/></clipPath></defs><g id="Groupe_7" data-name="Groupe 7"><g class="cls-2"><g id="Groupe_6" data-name="Groupe 6"><path id="Tracé_18" data-name="Tracé 18" class="cls-3" d="M127.13,36.74a22.85,22.85,0,0,1,2,9.21A8.28,8.28,0,0,0,124.9,43c4.12,5.87,7.92,12.29,8.7,19.42a50.37,50.37,0,0,1-.11,8.94l-.31,4.28A51.58,51.58,0,0,1,144,72.72a24.48,24.48,0,0,1,3.73-.2,6.77,6.77,0,0,1,.39-1.33c1.09-2.72,3.33-4.8,4.9-7.28s2.37-5.92.53-8.2a6.91,6.91,0,0,1-4.08,6.67c-1.47-2.8-.24-6.23,1.3-9a42,42,0,0,1,6.3-8.51A7.08,7.08,0,0,0,159,42.19c.51-1.73-.46-3.5-1.4-5A4.56,4.56,0,0,1,154,40.08a8.35,8.35,0,0,0-1.15-4.34c-1.23-2.08-3.36-3.6-4.17-5.87a3.42,3.42,0,0,1-.22-1.42c-3.25.58-6.49,1.37-9.69,2.16-4.38,1.08-8.81,2.18-13.16,3.49a14.32,14.32,0,0,1,1.56,2.64" transform="translate(-90.84 -28.11)"/><path id="Tracé_19" data-name="Tracé 19" class="cls-3" d="M123.11,79.24c-2.29-3.38-3.48-7.55-4.57-11.55a5,5,0,0,0-.83,3.13c-1.51-4,.86-8.4.42-12.63-.39-3.64-2.78-6.71-5.22-9.42-1,1.58.14,3.58,1.22,5.08-3-4.13-5.71-7.7-4.69-13.22l-1.12.64c-6.6,3.85-15.52,7.5-17.22,15.84C89.91,63,93,68.87,96.92,73.33A23.72,23.72,0,0,0,103.85,79c5.88,3,12.91,2.15,19.26.24" transform="translate(-90.84 -28.11)"/><path id="Tracé_20" data-name="Tracé 20" class="cls-3" d="M164.17,29.23c3.65,4.19,5.68,9.56,6.9,15a22.35,22.35,0,0,1,.61,8.45,10,10,0,0,1-4.32,7,15.68,15.68,0,0,0-3,1.82c-.83.83-1.19,2.33-.34,3.13s2.17.44,3.09-.19a10.84,10.84,0,0,1,2.79-1.83q-1.78,3.32-3.87,6.45a17.78,17.78,0,0,1-4,4.61,8.81,8.81,0,0,1-4.26,1.44,13.53,13.53,0,0,1,4.76,4.54,12.86,12.86,0,0,1,.82,1.56,50.77,50.77,0,0,0,7.8-1.73c5.65-1.91,10.68-5.85,16.61-6.39.72-.06,1.71.17,1.68.89l-3.12,3.62A14.09,14.09,0,0,1,196.16,75a1.87,1.87,0,0,1,.91.28,1.94,1.94,0,0,1,.54.86c.67,1.61,1.21,2.63,1.89,4.23-2.36-11-4.72-21.56-10.17-31.4-5.6-10.1-14.86-18.79-26.21-20.86.37.36.72.73,1,1.12" transform="translate(-90.84 -28.11)"/><path id="Tracé_21" data-name="Tracé 21" class="cls-3" d="M134.74,133.52c-2.74-4.05-7.22-6.5-10.93-9.67a7.07,7.07,0,0,1-1.5,5.46,19.15,19.15,0,0,0-2.13-4.36,29.94,29.94,0,0,0-.3,6.13,42,42,0,0,0,3.57,15.12c2.89-4.77,7.5-8.18,12.57-10.64-.44-.67-.84-1.38-1.28-2" transform="translate(-90.84 -28.11)"/><path id="Tracé_22" data-name="Tracé 22" class="cls-3" d="M201,89.8a7,7,0,0,1-6.88-1.75c-.81-.83-1.4-1.86-2.16-2.74A4.19,4.19,0,0,0,189,83.64a10.26,10.26,0,0,1,2.14,11.85c-1-3.24-2.27-6.79-5.26-8.39a4.17,4.17,0,0,1-.33,3.64,4.72,4.72,0,0,0-2.94-3.55,11.57,11.57,0,0,0-4.74-.67,23.79,23.79,0,0,0-8.82,1.67c-1.47.64-3.1,1.58-4.76,1.41l-.28,0a12.42,12.42,0,0,1-1.27,3.22,15.42,15.42,0,0,1-5.21,5.29c.9,1.84,1.63,3.78,2.57,5.6a12.7,12.7,0,0,0,4.38,5.18c2.67,1.63,6.16,1.73,8.54,3.76a9.81,9.81,0,0,1,2.6,4,10.34,10.34,0,0,1,.65,2.63c2.53-1.55,5-3.17,7.5-4.77,7.3-4.73,15.21-10.31,17-18.82a20.91,20.91,0,0,0,.32-6l-.13,0" transform="translate(-90.84 -28.11)"/><path id="Tracé_23" data-name="Tracé 23" class="cls-3" d="M167.53,124.12a11.58,11.58,0,0,0-5.22-6.08c-1.91-1.06-4.08-1.56-6-2.59a12.13,12.13,0,0,1-4.51-4.23,3.67,3.67,0,0,0-.27,3.18,11,11,0,0,0,1.67,2.84,9.3,9.3,0,0,1-7.6-3.94,17.3,17.3,0,0,1-2.24-6,15.42,15.42,0,0,1-.84-3.27c-6.12,2.2-12.24,5.3-16.57,9.77a10.63,10.63,0,0,1,2.34,1.39,20.64,20.64,0,0,1,5,6.65,50.71,50.71,0,0,0,4.21,7.25,12.3,12.3,0,0,1-1.65-4.81,26.43,26.43,0,0,1,5.2,4.75,10.37,10.37,0,0,1,1.85,3.75c5.9-2,12-3.32,17.83-5.55a70,70,0,0,0,6.8-3l0-.09" transform="translate(-90.84 -28.11)"/><path id="Tracé_24" data-name="Tracé 24" class="cls-3" d="M128.24,159.3a4.55,4.55,0,0,1,.39,1.51,4.66,4.66,0,0,0,1.3,2.66,17.16,17.16,0,0,0,2.66,1.56,5.57,5.57,0,0,1,2.55,4.07,4.56,4.56,0,0,0-2.55-1.67,20.81,20.81,0,0,1-3-1,5.54,5.54,0,0,1-2.65-2.91.45.45,0,0,0-.44.41,1.14,1.14,0,0,0,.13.65,6.76,6.76,0,0,0,1,1.57,5.24,5.24,0,0,1-3.13-2.5,4.26,4.26,0,0,1-.44-2.08,8.14,8.14,0,1,0,4.15-2.29" transform="translate(-90.84 -28.11)"/></g></g></g></svg>