<svg id="Calque_1" data-name="Calque 1" xmlns="http://www.w3.org/2000/svg" xmlns:xlink="http://www.w3.org/1999/xlink" viewBox="0 0 232.46 129.37"><defs><style>.cls-1{fill:none;}.cls-2{clip-path:url(#clip-path);}.cls-3{fill:#0f1a2e;}</style><clipPath id="clip-path" transform="translate(-36.92 -46.35)"><rect class="cls-1" x="36.92" y="46.35" width="232.46" height="129.38"/></clipPath></defs><g class="cls-2"><g id="Groupe_10" data-name="Groupe 10"><path id="Tracé_36" data-name="Tracé 36" class="cls-3" d="M94,120.3a1.73,1.73,0,0,1-.12.64L99,118.27l.71-1.09a6.29,6.29,0,0,0,.7-5.43l-4.18-12.6a8.28,8.28,0,0,1-.6-1.8l-2.28-6.86a6.3,6.3,0,0,1,4-8,6.2,6.2,0,0,1,3.81,0l21.12,6.41a6.54,6.54,0,0,0,1.65.27l12.38.36-8.91-13.63a5.32,5.32,0,0,1-.6-4.59l6-18a5.31,5.31,0,0,0-6.59-6.76L108.36,52a5.13,5.13,0,0,1-1.4.23l-19.5.56h-.3l-19.52-.56A5.06,5.06,0,0,1,66.25,52L48.42,46.58a5.32,5.32,0,0,0-6.59,6.76l6,18a5.32,5.32,0,0,1-.6,4.59L37.48,90.75c2.42-.59,4.26-.47,4.73.47.67,1.33-1.62,3.87-5.29,6a5.2,5.2,0,0,0,2,1.88l16.23,8.47,8.22-7.25a8.61,8.61,0,1,1,2.65,2.53l-7.37,6.54,22,11.5a2,2,0,0,1-.11-.64c0-1.93,3-3.49,6.69-3.49S94,118.37,94,120.3" transform="translate(-36.92 -46.35)"/><path id="Tracé_37" data-name="Tracé 37" class="cls-3" d="M212.3,120.3a1.73,1.73,0,0,0,.12.64l-5.13-2.67-.71-1.09a6.31,6.31,0,0,1-.71-5.43l4.19-12.6a8.28,8.28,0,0,0,.6-1.8l2.28-6.86a6.3,6.3,0,0,0-4-8,6.2,6.2,0,0,0-3.81,0L184,88.89a6.62,6.62,0,0,1-1.65.27L170,89.52l8.91-13.63a5.3,5.3,0,0,0,.6-4.58l-6-18a5.31,5.31,0,0,1,6.58-6.77L197.94,52a5.06,5.06,0,0,0,1.4.23l19.5.56h.3l19.51-.56A5.06,5.06,0,0,0,240,52l17.84-5.41a5.32,5.32,0,0,1,6.59,6.76l-6,18a5.32,5.32,0,0,0,.6,4.59l9.71,14.86c-2.43-.59-4.26-.47-4.73.47-.67,1.33,1.62,3.87,5.29,6.06a5.32,5.32,0,0,1-2,1.87l-16.23,8.47-8.22-7.25a8.63,8.63,0,1,0-2.66,2.53l7.38,6.54-22,11.5a1.73,1.73,0,0,0,.12-.64c0-1.93-3-3.49-6.7-3.49s-6.69,1.56-6.69,3.49" transform="translate(-36.92 -46.35)"/><path id="Tracé_38" data-name="Tracé 38" class="cls-3" d="M208.15,142c.3-.92,1.68-1.4,3.67-1.43l-11.91-18.23a6.31,6.31,0,0,1-.71-5.43l7.06-21.27a6.3,6.3,0,0,0-7.81-8l-21.12,6.41a5.76,5.76,0,0,1-1.65.27l-23.1.66h-.36l-23.11-.66a5.81,5.81,0,0,1-1.65-.27l-21.12-6.41a6.3,6.3,0,0,0-7.81,8l7.06,21.27a6.28,6.28,0,0,1-.7,5.43L93.38,140c2.87-.69,5.05-.54,5.6.57.79,1.58-1.92,4.58-6.27,7.17a6.3,6.3,0,0,0,2.42,2.22l19.22,10,9.74-8.59a10.19,10.19,0,1,1,3.14,3l-8.73,7.74,26.11,13.62a2.22,2.22,0,0,1-.14-.76c0-2.29,3.55-4.14,7.93-4.14s7.93,1.85,7.93,4.14a2.49,2.49,0,0,1-.14.76L186.3,162.1l-8.74-7.75a10.2,10.2,0,1,1,3.14-3l9.73,8.59,19.23-10a6.19,6.19,0,0,0,2.85-3.06c-3-1.68-4.8-3.53-4.36-4.83" transform="translate(-36.92 -46.35)"/><path id="Tracé_39" data-name="Tracé 39" class="cls-3" d="M132.55,151.37a5.72,5.72,0,1,0-5.73-5.72,5.72,5.72,0,0,0,5.73,5.72h0" transform="translate(-36.92 -46.35)"/><path id="Tracé_40" data-name="Tracé 40" class="cls-3" d="M70.5,101.39a5.72,5.72,0,1,0-5.72-5.72,5.72,5.72,0,0,0,5.72,5.72h0" transform="translate(-36.92 -46.35)"/><path id="Tracé_41" data-name="Tracé 41" class="cls-3" d="M235.61,101.39a5.72,5.72,0,1,0-5.72-5.72h0a5.72,5.72,0,0,0,5.72,5.72" transform="translate(-36.92 -46.35)"/><path id="Tracé_42" data-name="Tracé 42" class="cls-3" d="M166.53,145.65a5.72,5.72,0,1,0,5.72-5.72,5.72,5.72,0,0,0-5.72,5.72h0" transform="translate(-36.92 -46.35)"/></g></g></svg>