<svg id="Calque_1" data-name="Calque 1" xmlns="http://www.w3.org/2000/svg" xmlns:xlink="http://www.w3.org/1999/xlink" viewBox="0 0 227.9 165.17"><defs><style>.cls-1{fill:none;}.cls-2{clip-path:url(#clip-path);}.cls-3{fill:#0f1a2e;}</style><clipPath id="clip-path" transform="translate(-35.2 -21.14)"><rect class="cls-1" x="35.2" y="21.14" width="227.9" height="165.17"/></clipPath></defs><g class="cls-2"><g id="Groupe_8" data-name="Groupe 8"><path id="Tracé_25" data-name="Tracé 25" class="cls-3" d="M104.64,21.14a69.44,69.44,0,1,0,69.43,69.44h0a69.44,69.44,0,0,0-69.43-69.43h0M105,150.82a60.59,60.59,0,1,1,60.58-60.59A60.59,60.59,0,0,1,105,150.82h0" transform="translate(-35.2 -21.14)"/><path id="Tracé_26" data-name="Tracé 26" class="cls-3" d="M98.86,126.39c-2.16-1.16-4-2.08-5.71-3.08a50.88,50.88,0,0,0-10-3.9c-.88-.28-1.75-.55-2.6-.9a4.24,4.24,0,0,1-2.75-5.34l.06-.18A6.8,6.8,0,0,1,80,109.55a24.48,24.48,0,0,1,2.92-2.26c2.71-1.74,5.43-3.47,8.23-5.06a21.11,21.11,0,0,1,4.74-2.09,7.14,7.14,0,0,1,8.59,4,24.53,24.53,0,0,1,1.46,4.69,22.73,22.73,0,0,0,2.3,6.29,15.23,15.23,0,0,1,.8,1.62c2.13,4.85-.45,9.41-5.74,9.91a25.12,25.12,0,0,1-4.42-.27" transform="translate(-35.2 -21.14)"/><path id="Tracé_27" data-name="Tracé 27" class="cls-3" d="M79.05,96.63c-2.37-.85-3.87-2-4.67-4-1.64-4.09-1.53-12.27,3.17-16.84a6.21,6.21,0,0,1,4.33-2.06,4.09,4.09,0,0,1,4.33,3.23,23.83,23.83,0,0,1,.45,4.13c.16,2.57.27,5.15.4,7.73,0,.79.13,1.58.12,2.36a5.42,5.42,0,0,1-5.05,5.79,5.3,5.3,0,0,1-.89,0,16.36,16.36,0,0,1-2.2-.29" transform="translate(-35.2 -21.14)"/><path id="Tracé_28" data-name="Tracé 28" class="cls-3" d="M124.22,81.07a19.9,19.9,0,0,1-3.23,6.6,5.37,5.37,0,0,1-6.3,2A5.87,5.87,0,0,1,110.51,84a30.08,30.08,0,0,1,2.71-11.84,12.66,12.66,0,0,1,2.13-3.1c2.27-2.35,5.71-2.1,7.9.53a9.71,9.71,0,0,1,1.87,8.75,25.13,25.13,0,0,1-.9,2.7" transform="translate(-35.2 -21.14)"/><path id="Tracé_29" data-name="Tracé 29" class="cls-3" d="M107.89,75.29a48,48,0,0,1-2.57,5.12c-1.46,2.26-3.5,3.82-6.42,3.67a5,5,0,0,1-5.1-4.57,13.8,13.8,0,0,1,.27-5,23.6,23.6,0,0,1,5.26-9.86,8,8,0,0,1,5.13-2.59c2.4-.28,4.1.78,4.5,3.16a18.13,18.13,0,0,1,.06,4.88,47.24,47.24,0,0,1-1.13,5.15" transform="translate(-35.2 -21.14)"/><path id="Tracé_30" data-name="Tracé 30" class="cls-3" d="M116.53,105.46a18.74,18.74,0,0,1,5.6-8.3c3.83-3.07,7.28-1.94,8.58,2.79a9.08,9.08,0,0,1-1.78,8.9,61.39,61.39,0,0,1-5.38,5.44c-1.86,1.63-4.13,1.36-5.85-.42-2-2.06-2.23-4.51-1.6-7.15.1-.43.28-.84.42-1.26" transform="translate(-35.2 -21.14)"/><path id="Tracé_31" data-name="Tracé 31" class="cls-3" d="M64,103.92a17.19,17.19,0,0,1,4.09-6.42,5.7,5.7,0,0,1,.64-.56c.94-.67,1.74-.37,1.93.77.11.68,0,1.39.08,2.07a20,20,0,0,0,.46,3.53c.92,3.18.47,4-2.8,4.6-.9.16-1.79.43-2.69.54-1.75.2-2.57-.69-2.26-2.42.13-.72.37-1.41.55-2.11" transform="translate(-35.2 -21.14)"/><path id="Tracé_32" data-name="Tracé 32" class="cls-3" d="M123.77,65.27c-.35,1.18-.93,1.39-1.81.51a2.26,2.26,0,0,0-2.9-.42c-1.24.57-1.85.18-1.76-1.17a4.66,4.66,0,0,1,.7-2.3c1.2-1.77,2.53-3.45,3.86-5.13.64-.82,1.37-.72,1.83.23a4.1,4.1,0,0,1,.48,1.71c0,2.19-.08,4.39-.13,6.58h-.27" transform="translate(-35.2 -21.14)"/><path id="Tracé_33" data-name="Tracé 33" class="cls-3" d="M86.85,70.1c-.08.24-.15.48-.24.72-.48,1.15-.89,1.2-1.91.5A3.74,3.74,0,0,0,83.15,71c-.17,0-.36.17-.54.15-.56-.05-1.36,0-1.61-.29a1.92,1.92,0,0,1,.13-1.62c1.15-2.14,2.35-4.25,3.62-6.32a7.13,7.13,0,0,1,1.55-1.35,9.22,9.22,0,0,1,.77,1.73,13.08,13.08,0,0,1-.22,6.83" transform="translate(-35.2 -21.14)"/><path id="Tracé_34" data-name="Tracé 34" class="cls-3" d="M109.37,58.77c-.22.65-.44,1.31-.67,2s-.67.73-1,.22c-.79-1.09-1.88-1.12-3-1.08s-1.6-.4-1.08-1.54a9,9,0,0,1,1.3-2.07c1.09-1.31,2.26-2.56,3.4-3.82a1.42,1.42,0,0,1,1.67-.58c.73.29.68,1,.6,1.54-.27,1.8-.61,3.6-.92,5.4l-.22-.05" transform="translate(-35.2 -21.14)"/><path id="Tracé_35" data-name="Tracé 35" class="cls-3" d="M131.26,94.65a3.68,3.68,0,0,1-2-4.81,3.73,3.73,0,0,1,.77-1.16,30.7,30.7,0,0,1,3-2.44c.53-.41,1-.2.95.44-.08,2.38-.15,4.77-.38,7.14-.1,1-1.07,1.28-2.37.82" transform="translate(-35.2 -21.14)"/><rect id="Rectangle_6" data-name="Rectangle 6" class="cls-3" x="157.05" y="121.21" width="17.02" height="11.91" transform="translate(-59.29 193.28) rotate(-62.23)"/><rect id="Rectangle_7" data-name="Rectangle 7" class="cls-3" x="201.45" y="103.47" width="24.99" height="97.94" transform="translate(-55.81 249.59) rotate(-62.23)"/></g></g></svg>